<?xml version="1.0" encoding="utf-8"?>
<svg viewBox="0 -4 369.9792150448641 73.35434649220304" xmlns="http://www.w3.org/2000/svg">
  <g id="SvgjsG9235" featurekey="symbolFeature-0" transform="matrix(1.383242, 0, 0, 1.383242, -22.806185, -37.005634)" fill="#111111">
    <path xmlns="http://www.w3.org/2000/svg" d="M81.098,37.95c-4.587-17.061-14.858-14.929-19.145-12.346c-4.288,2.579-6.442,3.881-11.118,3.881  c-4.675,0-6.832-1.302-11.118-3.881c-4.289-2.583-14.557-4.715-19.145,12.346c-4.587,17.059-10.269,50.958,13.662,28.732  c0,0,5.947-6.724,16.601-6.724c10.209,0,16.602,6.724,16.602,6.724C91.367,88.907,85.683,55.009,81.098,37.95z M31.868,43.733  c-2.758,0-4.994-2.236-4.994-4.994c0-2.758,2.236-4.994,4.994-4.994c2.758,0,4.992,2.236,4.992,4.994  C36.859,41.498,34.625,43.733,31.868,43.733z M41.897,54.724c-3.2,0-5.792-2.595-5.792-5.792c0-3.201,2.592-5.792,5.792-5.792  c3.198,0,5.792,2.592,5.792,5.792C47.69,52.129,45.096,54.724,41.897,54.724z M59.901,46.425c-1.739,0-3.147-1.409-3.147-3.152  c0-1.738,1.408-3.147,3.147-3.147c1.742,0,3.151,1.409,3.151,3.147C63.053,45.016,61.644,46.425,59.901,46.425z M65.866,52.804  c-1.738,0-3.149-1.411-3.149-3.152c0-1.738,1.411-3.149,3.149-3.149c1.74,0,3.149,1.411,3.149,3.149  C69.016,51.393,67.606,52.804,65.866,52.804z M65.866,40.046c-1.738,0-3.149-1.411-3.149-3.151c0-1.739,1.411-3.15,3.149-3.15  c1.74,0,3.149,1.411,3.149,3.15C69.016,38.635,67.606,40.046,65.866,40.046z M72.656,46.425c-1.739,0-3.147-1.409-3.147-3.152  c0-1.738,1.408-3.147,3.147-3.147c1.742,0,3.151,1.409,3.151,3.147C75.808,45.016,74.398,46.425,72.656,46.425z" style="fill: rgb(255, 255, 255);"/>
  </g>
  <g id="SvgjsG9236" featurekey="nameFeature-0" transform="matrix(1.369676, 0, 0, 1.369676, 114.973526, -6.309135)" fill="#000000">
    <path d="M0.019531 12.870999999999999 l4.2578 -6.0742 l15.371 0 l0 45.742 l-9.8438 0 l0 -4.8242 l-9.7852 0 l0 -34.844 z M18.32 17.324 l-7.1094 0 l0 16.621 l-2.6563 0 l0 -19.238 l9.7852 0 l0 -6.6406 l-13.301 0 l-3.6523 5.1953 l0 27.227 l9.8242 0 l0 4.8438 l7.1094 0 l0 -28.008 z M20.39892553125 41.6406 l0 -34.844 l19.629 0 l0 40.918 l-15.371 0 z M31.55139453125 33.2617 l-2.6563 0 l0 -25.195 l-7.1484 0 l0 25.82 l4.668 6.6016 l12.266 0 l0 -32.422 l-7.1289 0 l0 25.195 z M60.6027890625 6.796999999999997 l0 15.703 l-5.0391 0 l0 9.5117 l5.0391 0 l0 15.703 l-19.824 0 l0 -15.703 l5.0391 0 l0 -9.5117 l-5.0391 0 l0 -15.703 l19.824 0 z M47.1064890625 34.0234 l-5.0391 0 l0 6.4648 l17.246 0 l0 -6.4648 l-5.0391 0 l0 -19.492 l5.0391 0 l0 -6.4648 l-17.246 0 l0 6.4648 l5.0391 0 l0 19.492 z M75.248046625 12.870999999999999 l4.2578 -6.0742 l15.371 0 l0 45.742 l-9.8438 0 l0 -4.8242 l-9.7852 0 l0 -34.844 z M93.548515625 17.324 l-7.1094 0 l0 16.621 l-2.6563 0 l0 -19.238 l9.7852 0 l0 -6.6406 l-13.301 0 l-3.6523 5.1953 l0 27.227 l9.8242 0 l0 4.8438 l7.1094 0 l0 -28.008 z M99.88521015625 6.796999999999997 l15.371 0 l0 40.918 l-19.629 0 l0 -34.844 z M104.10401015625 18.555 l2.6563 -3.8477 l0 6.9922 l-2.6563 0 l0 -3.1445 z M106.75991015625 40.48828 l7.1289 0 l0 -32.422 l-13.242 0 l-3.6914 5.293 l0 27.129 l7.1484 0 l0 -12.207 l2.6563 0 l0 12.207 z M145.4013046875 47.7148 l-29.395 0 l0.019531 -40.918 l25.098 0 l4.2773 6.0938 l0 34.824 z M127.1393046875 40.48828 l7.168 0 l0 -25.781 l2.6563 0 l0 25.781 l7.1289 0 l-0.019531 -27.129 l-3.6914 -5.293 l-23.008 0 l0 32.422 l7.168 0 l0 -25.781 l2.5977 0 l0 25.781 z M165.78032421875 47.7148 l-19.629 0 l0.019531 -40.918 l19.629 0 l0 14.961 l-6.0742 0 l0 10.898 l6.0547 0 l0 15.059 z M164.47232421875 14.530999999999999 l0 -6.4648 l-16.953 0 l0 32.422 l16.934 0 l0 -6.543 l-9.7656 0 l0 -6.4258 l3.6719 0 l0 -6.582 l-3.6719 0 l0 -6.4063 l9.7852 0 z M177.74225 27.52 l0 6.4258 l-9.8242 0 l0 6.543 l12.285 0 l4.6484 -6.6016 l0 -12.949 l-9.7656 0 l0 -6.4063 l9.7656 0 l0 -6.4648 l-13.281 0 l-3.6523 5.1953 l0 14.258 l9.8242 0 z M166.550781 47.7148 l0 -34.844 l4.2578 -6.0742 l15.371 0 l0 34.844 l-4.2578 6.0742 l-15.371 0 z" style="fill: rgb(255, 255, 255);"/>
  </g>
</svg>